{"accessors":[{"bufferView":0,"byteOffset":0,"componentType":5126,"count":4,"max":[-0.35000000000000003,2.5,-2.347624047671774],"min":[-0.55,0.1,-2.347624047671774],"type":"VEC3"},{"bufferView":0,"byteOffset":48,"componentType":5126,"count":4,"max":[-0.35000000000000003,2.5,-2.347624047671774],"min":[-0.35000000000000003,0.1,-3.8000000000000003],"type":"VEC3"},{"bufferView":0,"byteOffset":96,"componentType":5126,"count":4,"max":[-0.35000000000000003,2.5,-3.8000000000000003],"min":[-0.55,0.1,-3.8000000000000003],"type":"VEC3"},{"bufferView":0,"byteOffset":144,"componentType":5126,"count":4,"max":[-0.55,2.5,-2.347624047671774],"min":[-0.55,0.1,-3.8000000000000003],"type":"VEC3"},{"bufferView":0,"byteOffset":192,"componentType":5126,"count":4,"max":[-0.35000000000000003,0.1,-2.347624047671774],"min":[-0.55,0.1,-3.8000000000000003],"type":"VEC3"},{"bufferView":0,"byteOffset":240,"componentType":5126,"count":4,"max":[-0.35000000000000003,2.5,-2.347624047671774],"min":[-0.55,2.5,-3.8000000000000003],"type":"VEC3"},{"bufferView":0,"byteOffset":288,"componentType":5126,"count":4,"max":[0.55,0.2,-1.475973023473912],"min":[-0.35000000000000003,0.1,-1.475973023473912],"type":"VEC3"},{"bufferView":0,"byteOffset":336,"componentType":5126,"count":4,"max":[0.55,0.2,-1.475973023473912],"min":[0.55,0.1,-3.047624047671774],"type":"VEC3"},{"bufferView":0,"byteOffset":384,"componentType":5126,"count":4,"max":[0.55,0.2,-3.047624047671774],"min":[-0.35000000000000003,0.1,-3.047624047671774],"type":"VEC3"},{"bufferView":0,"byteOffset":432,"componentType":5126,"count":4,"max":[-0.35000000000000003,0.2,-1.475973023473912],"min":[-0.35000000000000003,0.1,-3.047624047671774],"type":"VEC3"},{"bufferView":0,"byteOffset":480,"componentType":5126,"count":4,"max":[0.55,0.1,-1.475973023473912],"min":[-0.35000000000000003,0.1,-3.047624047671774],"type":"VEC3"},{"bufferView":0,"byteOffset":528,"componentType":5126,"count":4,"max":[0.55,0.2,-1.475973023473912],"min":[-0.35000000000000003,0.2,-3.047624047671774],"type":"VEC3"},{"bufferView":0,"byteOffset":576,"componentType":5126,"count":4,"max":[0.35000000000000003,0.5,-2.347624047671774],"min":[-0.35000000000000003,0.1,-2.347624047671774],"type":"VEC3"},{"bufferView":0,"byteOffset":624,"componentType":5126,"count":4,"max":[0.35000000000000003,0.1,-2.347624047671774],"min":[-0.35000000000000003,0.1,-3.247624047671774],"type":"VEC3"},{"bufferView":0,"byteOffset":672,"componentType":5126,"count":11,"max":[0.35000000000000003,1.4000000000000001,-2.347624047671774],"min":[0.35000000000000003,0.1,-3.247624047671774],"type":"VEC3"},{"bufferView":0,"byteOffset":804,"componentType":5126,"count":4,"max":[0.35000000000000003,0.5,-2.347624047671774],"min":[-0.35000000000000003,0.5,-3.047624047671774],"type":"VEC3"},{"bufferView":0,"byteOffset":852,"componentType":5126,"count":8,"max":[-0.35000000000000003,1.4000000000000001,-2.347624047671774],"min":[-0.35000000000000003,0.1,-3.247624047671774],"type":"VEC3"},{"bufferView":0,"byteOffset":948,"componentType":5126,"count":4,"max":[0.35000000000000003,1.4000000000000001,-3.247624047671774],"min":[-0.35000000000000003,0.1,-3.247624047671774],"type":"VEC3"},{"bufferView":0,"byteOffset":996,"componentType":5126,"count":4,"max":[0.35000000000000003,1.4000000000000001,-2.347624047671774],"min":[-0.35000000000000003,1.4000000000000001,-3.247624047671774],"type":"VEC3"},{"bufferView":0,"byteOffset":1044,"componentType":5126,"count":4,"max":[0.35000000000000003,1.4000000000000001,-2.347624047671774],"min":[-0.35000000000000003,0.6,-2.347624047671774],"type":"VEC3"},{"bufferView":0,"byteOffset":1092,"componentType":5126,"count":6,"max":[0.35000000000000003,0.6,-2.347624047671774],"min":[-0.35000000000000003,0.6,-3.047624047671774],"type":"VEC3"},{"bufferView":0,"byteOffset":1164,"componentType":5126,"count":4,"max":[0.35000000000000003,1.2,-2.547624047671774],"min":[-0.15,0.6,-2.547624047671774],"type":"VEC3"},{"bufferView":0,"byteOffset":1212,"componentType":5126,"count":4,"max":[0.35000000000000003,1.2,-2.547624047671774],"min":[-0.15,1.2,-3.047624047671774],"type":"VEC3"},{"bufferView":0,"byteOffset":1260,"componentType":5126,"count":4,"max":[0.35000000000000003,1.2,-3.047624047671774],"min":[-0.15,0.6,-3.047624047671774],"type":"VEC3"},{"bufferView":0,"byteOffset":1308,"componentType":5126,"count":5,"max":[0.35000000000000003,0.6,-3.047624047671774],"min":[-0.35000000000000003,0.5,-3.047624047671774],"type":"VEC3"},{"bufferView":0,"byteOffset":1368,"componentType":5126,"count":4,"max":[-0.15,1.2,-2.547624047671774],"min":[-0.15,0.6,-3.047624047671774],"type":"VEC3"},{"bufferView":1,"byteOffset":0,"componentType":5126,"count":4,"type":"VEC3"},{"bufferView":1,"byteOffset":48,"componentType":5126,"count":4,"type":"VEC3"},{"bufferView":1,"byteOffset":96,"componentType":5126,"count":4,"type":"VEC3"},{"bufferView":1,"byteOffset":144,"componentType":5126,"count":4,"type":"VEC3"},{"bufferView":1,"byteOffset":192,"componentType":5126,"count":4,"type":"VEC3"},{"bufferView":1,"byteOffset":240,"componentType":5126,"count":4,"type":"VEC3"},{"bufferView":1,"byteOffset":288,"componentType":5126,"count":4,"type":"VEC3"},{"bufferView":1,"byteOffset":336,"componentType":5126,"count":4,"type":"VEC3"},{"bufferView":1,"byteOffset":384,"componentType":5126,"count":4,"type":"VEC3"},{"bufferView":1,"byteOffset":432,"componentType":5126,"count":4,"type":"VEC3"},{"bufferView":1,"byteOffset":480,"componentType":5126,"count":4,"type":"VEC3"},{"bufferView":1,"byteOffset":528,"componentType":5126,"count":4,"type":"VEC3"},{"bufferView":1,"byteOffset":576,"componentType":5126,"count":4,"type":"VEC3"},{"bufferView":1,"byteOffset":624,"componentType":5126,"count":4,"type":"VEC3"},{"bufferView":1,"byteOffset":672,"componentType":5126,"count":11,"type":"VEC3"},{"bufferView":1,"byteOffset":804,"componentType":5126,"count":4,"type":"VEC3"},{"bufferView":1,"byteOffset":852,"componentType":5126,"count":8,"type":"VEC3"},{"bufferView":1,"byteOffset":948,"componentType":5126,"count":4,"type":"VEC3"},{"bufferView":1,"byteOffset":996,"componentType":5126,"count":4,"type":"VEC3"},{"bufferView":1,"byteOffset":1044,"componentType":5126,"count":4,"type":"VEC3"},{"bufferView":1,"byteOffset":1092,"componentType":5126,"count":6,"type":"VEC3"},{"bufferView":1,"byteOffset":1164,"componentType":5126,"count":4,"type":"VEC3"},{"bufferView":1,"byteOffset":1212,"componentType":5126,"count":4,"type":"VEC3"},{"bufferView":1,"byteOffset":1260,"componentType":5126,"count":4,"type":"VEC3"},{"bufferView":1,"byteOffset":1308,"componentType":5126,"count":5,"type":"VEC3"},{"bufferView":1,"byteOffset":1368,"componentType":5126,"count":4,"type":"VEC3"},{"bufferView":2,"byteOffset":0,"componentType":5123,"count":6,"type":"SCALAR"},{"bufferView":2,"byteOffset":12,"componentType":5123,"count":6,"type":"SCALAR"},{"bufferView":2,"byteOffset":24,"componentType":5123,"count":6,"type":"SCALAR"},{"bufferView":2,"byteOffset":36,"componentType":5123,"count":6,"type":"SCALAR"},{"bufferView":2,"byteOffset":48,"componentType":5123,"count":6,"type":"SCALAR"},{"bufferView":2,"byteOffset":60,"componentType":5123,"count":6,"type":"SCALAR"},{"bufferView":2,"byteOffset":72,"componentType":5123,"count":6,"type":"SCALAR"},{"bufferView":2,"byteOffset":84,"componentType":5123,"count":6,"type":"SCALAR"},{"bufferView":2,"byteOffset":96,"componentType":5123,"count":6,"type":"SCALAR"},{"bufferView":2,"byteOffset":108,"componentType":5123,"count":6,"type":"SCALAR"},{"bufferView":2,"byteOffset":120,"componentType":5123,"count":6,"type":"SCALAR"},{"bufferView":2,"byteOffset":132,"componentType":5123,"count":6,"type":"SCALAR"},{"bufferView":2,"byteOffset":144,"componentType":5123,"count":6,"type":"SCALAR"},{"bufferView":2,"byteOffset":156,"componentType":5123,"count":6,"type":"SCALAR"},{"bufferView":2,"byteOffset":168,"componentType":5123,"count":27,"type":"SCALAR"},{"bufferView":2,"byteOffset":224,"componentType":5123,"count":6,"type":"SCALAR"},{"bufferView":2,"byteOffset":236,"componentType":5123,"count":18,"type":"SCALAR"},{"bufferView":2,"byteOffset":272,"componentType":5123,"count":6,"type":"SCALAR"},{"bufferView":2,"byteOffset":284,"componentType":5123,"count":6,"type":"SCALAR"},{"bufferView":2,"byteOffset":296,"componentType":5123,"count":6,"type":"SCALAR"},{"bufferView":2,"byteOffset":308,"componentType":5123,"count":12,"type":"SCALAR"},{"bufferView":2,"byteOffset":332,"componentType":5123,"count":6,"type":"SCALAR"},{"bufferView":2,"byteOffset":344,"componentType":5123,"count":6,"type":"SCALAR"},{"bufferView":2,"byteOffset":356,"componentType":5123,"count":6,"type":"SCALAR"},{"bufferView":2,"byteOffset":368,"componentType":5123,"count":9,"type":"SCALAR"},{"bufferView":2,"byteOffset":388,"componentType":5123,"count":6,"type":"SCALAR"}],"asset":{"generator":"Open CASCADE Technology 7.8 [dev.opencascade.org]","version":"2.0"},"bufferViews":[{"buffer":0,"byteLength":1416,"byteOffset":0,"byteStride":12,"target":34962},{"buffer":0,"byteLength":1416,"byteOffset":1416,"byteStride":12,"target":34962},{"buffer":0,"byteLength":400,"byteOffset":2832,"target":34963}],"buffers":[{"byteLength":3232,"uri":"Yogaraum_balken_v2-Ofen.bin"}],"materials":[{"name":"mat_0","pbrMetallicRoughness":{"baseColorFactor":[0.6038273572921753,0.6038273572921753,0.6038273572921753,1.0]},"doubleSided":true}],"meshes":[{"name":"Extrude118","primitives":[{"attributes":{"NORMAL":26,"POSITION":0},"indices":52,"material":0,"mode":4},{"attributes":{"NORMAL":27,"POSITION":1},"indices":53,"material":0,"mode":4},{"attributes":{"NORMAL":28,"POSITION":2},"indices":54,"material":0,"mode":4},{"attributes":{"NORMAL":29,"POSITION":3},"indices":55,"material":0,"mode":4},{"attributes":{"NORMAL":30,"POSITION":4},"indices":56,"material":0,"mode":4},{"attributes":{"NORMAL":31,"POSITION":5},"indices":57,"material":0,"mode":4}]},{"name":"Solid069","primitives":[{"attributes":{"NORMAL":32,"POSITION":6},"indices":58,"material":0,"mode":4},{"attributes":{"NORMAL":33,"POSITION":7},"indices":59,"material":0,"mode":4},{"attributes":{"NORMAL":34,"POSITION":8},"indices":60,"material":0,"mode":4},{"attributes":{"NORMAL":35,"POSITION":9},"indices":61,"material":0,"mode":4},{"attributes":{"NORMAL":36,"POSITION":10},"indices":62,"material":0,"mode":4},{"attributes":{"NORMAL":37,"POSITION":11},"indices":63,"material":0,"mode":4}]},{"name":"Solid070","primitives":[{"attributes":{"NORMAL":38,"POSITION":12},"indices":64,"material":0,"mode":4},{"attributes":{"NORMAL":39,"POSITION":13},"indices":65,"material":0,"mode":4},{"attributes":{"NORMAL":40,"POSITION":14},"indices":66,"material":0,"mode":4},{"attributes":{"NORMAL":41,"POSITION":15},"indices":67,"material":0,"mode":4},{"attributes":{"NORMAL":42,"POSITION":16},"indices":68,"material":0,"mode":4},{"attributes":{"NORMAL":43,"POSITION":17},"indices":69,"material":0,"mode":4},{"attributes":{"NORMAL":44,"POSITION":18},"indices":70,"material":0,"mode":4},{"attributes":{"NORMAL":45,"POSITION":19},"indices":71,"material":0,"mode":4},{"attributes":{"NORMAL":46,"POSITION":20},"indices":72,"material":0,"mode":4},{"attributes":{"NORMAL":47,"POSITION":21},"indices":73,"material":0,"mode":4},{"attributes":{"NORMAL":48,"POSITION":22},"indices":74,"material":0,"mode":4},{"attributes":{"NORMAL":49,"POSITION":23},"indices":75,"material":0,"mode":4},{"attributes":{"NORMAL":50,"POSITION":24},"indices":76,"material":0,"mode":4},{"attributes":{"NORMAL":51,"POSITION":25},"indices":77,"material":0,"mode":4}]}],"nodes":[{"children":[1,2,3],"name":"Ofen"},{"mesh":0,"name":"Extrude118"},{"translation":[0.0,0.4,0.0],"mesh":1,"name":"Solid069"},{"mesh":2,"name":"Solid070"}],"scene":0,"scenes":[{"nodes":[0]}]}